<svg width="24" height="24" viewBox="0 0 24 24" fill="none" xmlns="http://www.w3.org/2000/svg">
<path fill-rule="evenodd" clip-rule="evenodd" d="M16.9479 0.0722326C18.2252 0.130488 19.0975 0.333349 19.8609 0.630021C20.65 0.936644 21.3192 1.34698 21.9864 2.0141C22.6535 2.68127 23.0638 3.35052 23.3705 4.13963C23.6671 4.90293 23.87 5.77522 23.9283 7.05249C23.9837 8.26844 23.999 8.69813 24.0004 11.5323V12.4681C23.999 15.3023 23.9837 15.7319 23.9283 16.9479C23.87 18.2251 23.6671 19.0975 23.3705 19.8608C23.0638 20.6499 22.6535 21.3191 21.9864 21.9863C21.3192 22.6534 20.65 23.0637 19.8609 23.3704C19.0975 23.667 18.2252 23.8699 16.9479 23.9281C15.7 23.9851 15.2803 23.9997 12.2394 24.0003H12.0002C8.74118 24.0003 8.33251 23.9865 7.05256 23.9281C5.77527 23.8699 4.90294 23.667 4.13964 23.3704C3.35051 23.0637 2.68129 22.6534 2.01411 21.9863C1.34698 21.3191 0.936645 20.6499 0.629971 19.8608C0.333347 19.0975 0.13048 18.2251 0.0722219 16.9479C0.0211214 15.8279 0.00414428 15.3751 0.000701904 13.096V10.9044C0.00414428 8.62535 0.0211214 8.17245 0.0722219 7.05249C0.13048 5.77522 0.333347 4.90293 0.629971 4.13963C0.936645 3.35052 1.34698 2.68127 2.01411 2.0141C2.68129 1.34698 3.35051 0.936644 4.13964 0.630021C4.90294 0.333349 5.77527 0.130488 7.05256 0.0722326C8.17252 0.0211321 8.6254 0.00417675 10.9044 0.000732422H13.096C15.3751 0.00417675 15.828 0.0211321 16.9479 0.0722326ZM12.0002 2.16221C8.79605 2.16221 8.41649 2.17443 7.15112 2.23216C5.98111 2.28552 5.34571 2.48103 4.92285 2.64537C4.36271 2.86306 3.96295 3.12309 3.54305 3.54304C3.1231 3.96294 2.86305 4.36271 2.64536 4.92285C2.48102 5.3457 2.28552 5.98106 2.23217 7.15107C2.18036 8.28665 2.1652 8.70881 2.16263 11.0994V12.9009C2.1652 15.2915 2.18036 15.7137 2.23217 16.8493C2.28552 18.0193 2.48102 18.6547 2.64536 19.0775C2.86305 19.6377 3.1231 20.0374 3.54305 20.4573C3.96295 20.8773 4.36271 21.1373 4.92285 21.355C5.34571 21.5193 5.98111 21.7149 7.15112 21.7682C8.28654 21.82 8.70864 21.8352 11.0994 21.8378H12.9011C15.2918 21.8352 15.7139 21.82 16.8494 21.7682C18.0194 21.7149 18.6548 21.5193 19.0776 21.355C19.6378 21.1373 20.0375 20.8773 20.4574 20.4573C20.8773 20.0374 21.1374 19.6377 21.3551 19.0775C21.5195 18.6547 21.715 18.0193 21.7683 16.8493C21.8201 15.7137 21.8353 15.2915 21.8379 12.9009V11.0994C21.8353 8.70881 21.8201 8.28665 21.7683 7.15107C21.715 5.98106 21.5195 5.3457 21.3551 4.92285C21.1374 4.36271 20.8774 3.96294 20.4574 3.54304C20.0375 3.12309 19.6378 2.86306 19.0776 2.64537C18.6548 2.48103 18.0194 2.28552 16.8494 2.23216C15.584 2.17443 15.2044 2.16221 12.0002 2.16221ZM12.0002 5.83794C15.4036 5.83794 18.1625 8.59682 18.1625 12.0002C18.1625 15.4035 15.4036 18.1624 12.0002 18.1624C8.59689 18.1624 5.83796 15.4035 5.83796 12.0002C5.83796 8.59682 8.59689 5.83794 12.0002 5.83794ZM12.0002 7.9759C9.77765 7.9759 7.97588 9.77757 7.97588 12.0002C7.97588 14.2227 9.77765 16.0245 12.0002 16.0245C14.2228 16.0245 16.0246 14.2227 16.0246 12.0002C16.0246 9.77757 14.2228 7.9759 12.0002 7.9759ZM5.83798 4.5406C6.55444 4.5406 7.13528 5.12148 7.13528 5.83798C7.13528 6.55447 6.55444 7.13523 5.83798 7.13523C5.12148 7.13523 4.54063 6.55447 4.54063 5.83798C4.54063 5.12148 5.12148 4.5406 5.83798 4.5406Z" fill="white"/>
</svg>
