<svg width="24" height="24" viewBox="0 0 24 24" fill="none" xmlns="http://www.w3.org/2000/svg">
<path d="M12.0099 0C5.37725 0 0 5.36839 0 11.9901C0 17.0723 3.1631 21.4144 7.63096 23.1612C7.52223 22.2138 7.43324 20.7533 7.67048 19.7171C7.88794 18.7796 9.07411 13.7565 9.07411 13.7565C9.07411 13.7565 8.71827 13.0362 8.71827 11.9803C8.71827 10.3125 9.68697 9.06905 10.8929 9.06905C11.9209 9.06905 12.4151 9.83878 12.4151 10.7565C12.4151 11.7829 11.7628 13.3224 11.4168 14.7533C11.1301 15.9474 12.0198 16.9243 13.196 16.9243C15.3311 16.9243 16.972 14.6743 16.972 11.4375C16.972 8.56579 14.9061 6.5625 11.9506 6.5625C8.53046 6.5625 6.52386 9.11843 6.52386 11.7632C6.52386 12.7895 6.91926 13.8947 7.41349 14.4967C7.51234 14.6151 7.52221 14.7237 7.49256 14.8421C7.40359 15.2171 7.19601 16.0362 7.15647 16.2039C7.10705 16.421 6.97857 16.4704 6.75123 16.3618C5.24876 15.6612 4.30973 13.4803 4.30973 11.7138C4.30973 7.93424 7.05764 4.46053 12.2471 4.46053C16.4085 4.46053 19.6507 7.42107 19.6507 11.3882C19.6507 15.523 17.0411 18.8487 13.4234 18.8487C12.2075 18.8487 11.0609 18.2171 10.6754 17.4671C10.6754 17.4671 10.0725 19.7565 9.9242 20.319C9.65731 21.3651 8.92583 22.6678 8.4316 23.4671C9.55845 23.8125 10.7446 24 11.9901 24C18.6227 24 24 18.6316 24 12.0099C24.0197 5.36846 18.6425 0 12.0099 0Z" fill="white"/>
</svg>
