<svg width="24" height="24" viewBox="0 0 24 24" fill="none" xmlns="http://www.w3.org/2000/svg">
<path fill-rule="evenodd" clip-rule="evenodd" d="M12 0C18.6117 0 24 5.37528 24 12C24 18.6247 18.6117 24 12 24C5.37528 24 0 18.6247 0 12C0 5.37528 5.37528 0 12 0ZM13.8221 13.666L13.757 13.692C7.9783 15.7094 5.89587 19.718 5.71364 20.0954C7.44467 21.449 9.63125 22.256 12 22.256C13.4187 22.256 14.7723 21.9696 16.0087 21.436C15.8525 20.5379 15.2668 17.4013 13.8221 13.666ZM22.0998 13.6399C21.7484 13.5228 18.9371 12.6898 15.7224 13.1974C17.0629 16.8806 17.6095 19.8742 17.7137 20.4989C20.0173 18.9501 21.6573 16.4902 22.0998 13.6399ZM12.2733 10.243C7.15834 11.7788 2.18655 11.7136 1.74404 11.7006V12.013C1.74404 14.6421 2.7462 17.0499 4.37311 18.859C4.60738 18.4686 7.41866 13.8091 12.7028 12.1041L13.1063 11.987C12.846 11.4013 12.5726 10.8156 12.2733 10.243ZM19.9262 5.53145C19.705 5.81779 17.987 8.03036 14.2126 9.56614C14.4469 10.0477 14.6811 10.5553 14.8894 11.0499C14.9675 11.2321 15.0326 11.4143 15.1107 11.5835C18.5206 11.154 21.9046 11.8438 22.243 11.9089C22.2169 9.50106 21.3579 7.27548 19.9262 5.53145ZM7.63991 2.7332C4.77657 4.08677 2.62907 6.72882 1.96531 9.90456C2.42085 9.90456 6.65077 9.93057 11.4403 8.65509C9.73537 5.63558 7.91322 3.09762 7.63991 2.7332ZM12 1.77005C11.167 1.77005 10.3601 1.86117 9.59219 2.04338C9.87851 2.43383 11.7397 4.95881 13.4187 8.04342C17.0629 6.67683 18.6117 4.60737 18.7939 4.34706C16.9848 2.74619 14.603 1.77005 12 1.77005Z" fill="white"/>
</svg>
