<svg width="108" height="72" viewBox="0 0 108 72" fill="none" xmlns="http://www.w3.org/2000/svg">
<path d="M98.951 71.7543C93.9896 71.7543 91.0469 69.2153 90.8218 65.5584H95.5657C95.5657 66.7774 96.2413 68.4001 99.1761 68.501C101.21 68.501 102.336 67.2821 102.336 66.3659C102.111 64.945 100.302 64.8439 98.5007 64.5333C96.8728 64.341 95.2776 63.9337 93.7567 63.3221C92.9834 62.8892 92.3432 62.2533 91.9053 61.4829C91.4674 60.7124 91.2484 59.8368 91.2722 58.9509C91.2722 55.6977 93.9896 53.1587 98.7258 53.1587C103.245 53.1587 106.18 55.4958 106.397 59.0518H101.886C101.886 58.1434 101.661 56.6139 98.951 56.6139C97.1419 56.6139 96.0161 56.9166 95.791 58.2365C95.791 60.0689 99.6265 59.9681 102.561 60.6747C105.271 61.389 107.08 63.1126 107.08 65.5584C107.08 70.0306 103.47 71.7543 98.951 71.7543Z" fill="black"/>
<path d="M12.5035 41.7483L28.0787 32.7028L36.4332 47.036H15.4387" fill="black"/>
<rect x="42.9795" y="53.1006" width="4.56" height="18.05" fill="black"/>
<path d="M5.27514 62.4369C5.27514 65.2786 7.7597 67.6156 10.4617 67.6156C13.4043 67.6156 15.6559 65.2786 15.6559 62.4369C15.6559 59.6961 13.4043 57.2582 10.4617 57.2582C9.10217 57.3045 7.81087 57.8647 6.84829 58.8259C5.8857 59.787 5.3235 61.0775 5.27514 62.4369ZM10.2365 71.7852C5.27514 71.7852 0.989258 67.6157 0.989258 62.4369C0.989258 57.2582 5.27514 53.1896 10.2365 53.1896C12.2707 53.1896 14.0798 53.7022 15.6559 54.8125V53.3915H20.1747V71.3736H15.6559V70.2554C14.305 71.2725 12.2707 71.7852 10.2365 71.7852Z" fill="black"/>
<path d="M70.5203 47.0326L48.85 9.23614L64.4256 0.0898438L91.5151 47.0326" fill="black"/>
<path d="M26.0447 62.4378C26.0447 65.2795 28.3041 67.6165 31.2389 67.6165C33.9409 67.6165 36.4332 65.2795 36.4332 62.4378C36.3829 61.0777 35.8191 59.7872 34.8553 58.8262C33.8914 57.8653 32.5992 57.3053 31.2389 57.2591C29.8659 57.2652 28.5506 57.8123 27.5782 58.7817C26.6059 59.7512 26.0549 61.0648 26.0447 62.4378ZM31.0138 71.786C29.7899 71.7882 28.5778 71.547 27.4479 71.0768C26.318 70.6067 25.2927 69.9166 24.4317 69.0469C23.5706 68.1772 22.891 67.145 22.4321 66.0105C21.9733 64.8759 21.7444 63.6616 21.7588 62.4378C21.7588 57.259 25.8195 53.1905 31.0138 53.1905C33.0403 53.1905 34.8493 53.703 36.4332 54.8133V47.1965H40.9443V71.3745H36.4332V70.2563C34.8147 71.2842 32.9308 71.8161 31.0138 71.786Z" fill="black"/>
<path d="M30.7912 25.5937L46.592 16.6571L63.9757 47.0309H47.4924V51.5031H42.9813V47.0309" fill="black"/>
<path d="M104.153 51.6451C103.563 51.6279 103.002 51.3875 102.582 50.9724C102.163 50.5574 101.917 49.9986 101.893 49.409C101.917 48.8195 102.163 48.2607 102.582 47.8457C103.002 47.4306 103.563 47.1902 104.153 47.173C104.45 47.1645 104.746 47.2165 105.022 47.3256C105.298 47.4347 105.55 47.5985 105.761 47.8075C105.972 48.0166 106.139 48.2663 106.251 48.5416C106.363 48.8168 106.418 49.1119 106.412 49.409C106.418 49.7061 106.363 50.0012 106.251 50.2765C106.139 50.5518 105.972 50.8015 105.761 51.0106C105.55 51.2196 105.298 51.3837 105.022 51.4927C104.746 51.6018 104.45 51.6536 104.153 51.6451ZM104.153 47.4836C103.019 47.4836 102.344 48.3919 102.344 49.409C102.344 50.4262 103.019 51.3423 104.153 51.3423C105.279 51.3423 105.954 50.4262 105.954 49.409C105.954 48.3919 105.279 47.4836 104.153 47.4836Z" fill="black"/>
<path d="M104.619 50.6345L104.168 49.6173H103.718V50.6345H103.377V48.1963H104.394C104.619 48.1963 105.069 48.507 105.069 48.9107C105.077 49.0607 105.038 49.2094 104.957 49.336C104.876 49.4627 104.758 49.561 104.619 49.6173L105.069 50.6345H104.619ZM104.168 48.507H103.718V49.3145H104.168C104.619 49.3145 104.619 49.2135 104.619 48.9107C104.619 48.7011 104.619 48.507 104.168 48.507ZM74.3382 62.4361C74.3382 65.2778 76.5976 67.6148 79.5325 67.6148C82.2422 67.6148 84.719 65.2778 84.719 62.4361C84.6725 61.0761 84.1108 59.7844 83.1479 58.8229C82.1849 57.8614 80.8926 57.3019 79.5325 57.2574C78.1594 57.2635 76.8441 57.8105 75.8718 58.78C74.8994 59.7494 74.3484 61.063 74.3382 62.4361ZM79.2996 71.7843C78.0764 71.7854 76.8651 71.5437 75.7361 71.073C74.6071 70.6024 73.5827 69.912 72.7225 69.0424C71.8623 68.1728 71.1833 67.1412 70.7249 66.0071C70.2665 64.873 70.0379 63.6592 70.0523 62.4361C70.0523 57.2573 74.1131 53.1888 79.2996 53.1888C81.3338 53.1888 83.1429 53.7013 84.719 54.8116V53.3906H89.0127V71.3727H84.719V70.2546C83.1015 71.2846 81.2169 71.8166 79.2996 71.7843ZM53.5843 62.4361C53.5843 65.2778 56.0689 67.6148 58.7786 67.6148C61.7135 67.6148 63.9729 65.2778 63.9729 62.4361C63.9627 61.063 63.4117 59.7494 62.4393 58.78C61.467 57.8105 60.1517 57.2635 58.7786 57.2574C57.4178 57.3018 56.1245 57.8611 55.1603 58.8224C54.1961 59.7837 53.6328 61.0754 53.5843 62.4361ZM63.9729 47.1947H68.4839V71.3727H63.9729V70.2546C62.4515 71.3108 60.6296 71.8474 58.7786 71.7843C53.5843 71.7843 49.2984 67.6148 49.2984 62.4361C49.2984 57.2573 53.5843 53.1888 58.7786 53.1888C60.8051 53.1888 62.6141 53.7013 63.9729 54.8116V47.1947Z" fill="black"/>
</svg>
