<svg width="152" height="152" viewBox="0 0 152 152" fill="none" xmlns="http://www.w3.org/2000/svg">
<g filter="url(#filter0_d_2_339)">
<path d="M116.889 104.302C115.356 107.843 113.542 111.101 111.441 114.098C108.576 118.182 106.23 121.009 104.423 122.579C101.62 125.156 98.618 126.476 95.403 126.551C93.0949 126.551 90.3114 125.894 87.0714 124.562C83.8206 123.236 80.8333 122.579 78.1018 122.579C75.237 122.579 72.1645 123.236 68.8782 124.562C65.5868 125.894 62.9354 126.589 60.9081 126.657C57.8251 126.789 54.752 125.431 51.6846 122.579C49.7267 120.872 47.278 117.944 44.3443 113.797C41.1969 109.369 38.6092 104.233 36.582 98.3787C34.4109 92.0551 33.3225 85.9315 33.3225 80.0031C33.3225 73.212 34.7899 67.3549 37.7291 62.4466C40.0391 58.5041 43.1121 55.3941 46.9583 53.1112C50.8044 50.8281 54.9603 49.6646 59.4357 49.5903C61.8845 49.5903 65.0958 50.3477 69.0865 51.8364C73.0659 53.3301 75.621 54.0875 76.7413 54.0875C77.5788 54.0875 80.4174 53.2018 85.2293 51.4361C89.7798 49.7985 93.6203 49.1204 96.7665 49.3875C105.292 50.0756 111.697 53.4364 115.957 59.4912C108.332 64.1111 104.56 70.5818 104.635 78.8828C104.704 85.3485 107.05 90.729 111.66 95.0012C113.749 96.984 116.082 98.5165 118.678 99.6048C118.115 101.237 117.52 102.801 116.889 104.302V104.302ZM97.3358 27.36C97.3358 32.4278 95.4842 37.1597 91.7938 41.5394C87.3403 46.7461 81.9536 49.7547 76.1121 49.2799C76.0338 48.6428 75.9945 48.0015 75.9944 47.3596C75.9944 42.4945 78.1123 37.2879 81.8735 33.0308C83.7512 30.8753 86.1394 29.0831 89.0354 27.6534C91.9252 26.245 94.6586 25.4662 97.2294 25.3328C97.3045 26.0102 97.3358 26.6878 97.3358 27.3599V27.36Z" fill="black"/>
</g>
<defs>
<filter id="filter0_d_2_339" x="23.3225" y="16.3328" width="111.355" height="127.333" filterUnits="userSpaceOnUse" color-interpolation-filters="sRGB">
<feFlood flood-opacity="0" result="BackgroundImageFix"/>
<feColorMatrix in="SourceAlpha" type="matrix" values="0 0 0 0 0 0 0 0 0 0 0 0 0 0 0 0 0 0 127 0" result="hardAlpha"/>
<feOffset dx="3" dy="4"/>
<feGaussianBlur stdDeviation="6.5"/>
<feComposite in2="hardAlpha" operator="out"/>
<feColorMatrix type="matrix" values="0 0 0 0 0 0 0 0 0 0 0 0 0 0 0 0 0 0 0.1 0"/>
<feBlend mode="normal" in2="BackgroundImageFix" result="effect1_dropShadow_2_339"/>
<feBlend mode="normal" in="SourceGraphic" in2="effect1_dropShadow_2_339" result="shape"/>
</filter>
</defs>
</svg>
