<svg width="110" height="36" viewBox="0 0 110 36" fill="none" xmlns="http://www.w3.org/2000/svg">
<path d="M35.7032 31.0972L35.5982 4.94275C35.5982 2.31321 37.6455 0.186035 40.2701 0.186035H40.7828C43.4099 0.186035 45.5408 2.31321 45.5408 4.94275L45.6453 31.0972C45.6453 33.7229 43.5185 35.8562 40.8853 35.8562H40.346C37.7129 35.8562 35.7032 33.7229 35.7032 31.0972ZM95.7644 3.27511L106.334 20.4865C108.619 24.2031 109.15 25.1716 109.15 27.9117C109.15 32.2335 105.233 35.54 101.757 35.54H87.4856C84.877 35.54 82.775 33.7392 82.775 31.1362V30.8389C82.775 28.2381 84.877 26.1313 87.4856 26.1313H96.2341C96.7817 26.1313 97.1303 26.0576 97.274 25.711C97.434 25.3314 97.3908 25.118 97.1303 24.6936L90.8981 14.69C90.7931 14.5239 90.6785 14.294 90.4818 14.294C90.3011 14.294 90.1453 14.5239 90.0613 14.7021L80.5311 31.0503C79.0547 33.645 77.3073 35.54 74.7028 35.54H56.3913C52.9257 35.54 49.433 32.1207 49.433 28.5785V4.92838C49.433 2.32951 51.5371 0.218918 54.1314 0.218918H54.7323C57.3328 0.218918 59.4428 2.32951 59.4428 4.92838L59.4347 24.2484C59.4347 24.9622 59.9514 25.5262 60.7205 25.5262H69.826C71.4154 25.5262 72.3774 24.9542 73.214 23.5634L85.4511 3.27511C86.62 1.34496 88.4901 0.313146 90.697 0.313146C92.8318 0.313146 94.5237 1.27919 95.7644 3.27511ZM12.1375 23.2968C11.9695 23.2965 11.803 23.3294 11.6478 23.3937C11.4925 23.458 11.3515 23.5523 11.2328 23.6712C11.1141 23.7901 11.0201 23.9314 10.9561 24.0868C10.8921 24.2422 10.8594 24.4087 10.86 24.5767V31.1588C10.86 33.7596 8.75366 35.86 6.1575 35.86H5.55246C2.95602 35.86 0.849976 33.7599 0.849976 31.1588L0.85412 19.1883C0.85412 16.1504 3.18589 13.5844 6.45478 13.5844H25.5764C28.1706 13.5844 30.2786 15.6928 30.2786 18.2938V18.5892C30.2786 21.1942 28.1706 23.2968 25.5764 23.2968H12.1375Z" fill="#03234C"/>
<path d="M5.60992 0.863281H27.8833C30.5084 0.863281 32.6435 2.91225 32.6435 5.53599V5.83111C32.6435 8.467 30.5084 10.5961 27.8833 10.5961H5.61019C2.98281 10.5961 0.852173 8.467 0.852173 5.83111V5.50504C0.851897 2.8755 2.98281 0.863281 5.61019 0.863281" fill="#E51937"/>
</svg>
