<svg width="102" height="102" viewBox="0 0 102 102" fill="none" xmlns="http://www.w3.org/2000/svg">
<path fill-rule="evenodd" clip-rule="evenodd" d="M97.7507 101.541H4.11681C1.99224 101.541 0.270111 99.8184 0.270111 97.6937V4.05326C0.270111 1.92856 1.99224 0.207281 4.11681 0.207281H97.7507C99.8753 0.207281 101.597 1.92856 101.597 4.05326V97.6937C101.597 99.8184 99.8752 101.541 97.7507 101.541" fill="#FF6700"/>
<path d="M79.7246 32.0791H71.753C71.4116 32.0791 71.1353 32.3506 71.1353 32.6852V69.0589C71.1353 69.3906 71.4116 69.6621 71.753 69.6621H79.7246C80.0631 69.6621 80.3433 69.3905 80.3433 69.0589V32.6852C80.3433 32.3506 80.0631 32.0791 79.7246 32.0791ZM52.5061 32.0791H22.141C21.7996 32.0791 21.5252 32.3506 21.5252 32.6852V69.0589C21.5252 69.3906 21.7996 69.6621 22.141 69.6621H30.1145C30.4539 69.6621 30.7351 69.3905 30.7351 69.0589V40.5109C30.7351 40.1813 31.0095 39.9077 31.3509 39.9077H48.5265C53.3565 39.9077 54.7275 43.6072 54.7275 45.9938V69.0589C54.7275 69.3906 55.0049 69.6621 55.3462 69.6621H63.3149C63.6543 69.6621 63.9326 69.3905 63.9326 69.0589V43.2553C63.9326 41.1267 63.6766 38.0662 60.9305 35.3723C58.0574 32.56 55.4364 32.0791 52.5061 32.0791" fill="white"/>
<path d="M46.921 46.5671H38.5499C38.2085 46.5671 37.9284 46.8386 37.9284 47.1712V69.062C37.9284 69.3927 38.2085 69.6642 38.5499 69.6642H46.921C47.2594 69.6642 47.5367 69.3926 47.5367 69.062V47.1712C47.5367 46.8386 47.2594 46.5671 46.921 46.5671Z" fill="white"/>
</svg>
