<svg width="152" height="152" viewBox="0 0 152 152" fill="none" xmlns="http://www.w3.org/2000/svg">
<path d="M34.5367 94.7947C31.3664 94.6698 28.7727 93.8092 26.7446 92.2107C26.3575 91.9054 25.4352 90.9898 25.1258 90.6037C24.3033 89.5777 23.7442 88.5793 23.3712 87.4714C22.2236 84.0613 22.8143 79.5864 25.0606 74.6753C26.984 70.4708 29.9517 66.3008 35.1295 60.5253C35.8922 59.6754 38.1635 57.19 38.1782 57.19C38.1836 57.19 38.0598 57.4027 37.904 57.6618C36.5578 59.8989 35.4058 62.5341 34.7783 64.8154C33.7702 68.476 33.8918 71.6174 35.1344 74.0533C35.9916 75.7314 37.4611 77.185 39.1135 77.9885C42.0064 79.3947 46.2418 79.511 51.4141 78.3289C51.7702 78.247 69.4163 73.5998 90.6279 68.0015C111.839 62.4027 129.197 57.8255 129.2 57.8293C129.206 57.8341 79.9195 78.7571 54.3341 89.6117C50.2823 91.3302 49.1987 91.7643 47.2938 92.4278C42.4244 94.1242 38.0626 94.9337 34.5367 94.7947V94.7947Z" fill="black"/>
</svg>
