<svg width="18" height="18" viewBox="0 0 18 18" fill="none" xmlns="http://www.w3.org/2000/svg">
<path d="M17.655 8.98857C17.655 4.20209 13.7748 0.321899 8.98839 0.321899C4.20191 0.321899 0.321716 4.20209 0.321716 8.98857C0.321716 13.3143 3.49099 16.8998 7.63422 17.5499V11.4938H5.4337V8.98857H7.63422V7.07919C7.63422 4.9071 8.92808 3.70732 10.9077 3.70732C11.856 3.70732 12.8478 3.87659 12.8478 3.87659V6.0094H11.7549C10.6783 6.0094 10.3426 6.67746 10.3426 7.36285V8.98857H12.7462L12.3619 11.4938H10.3425V17.5499C14.4858 16.8998 17.655 13.3143 17.655 8.98857Z" fill="#1877F2"/>
<path d="M12.3613 11.4951L12.7456 8.98987H10.3419V7.36413C10.3419 6.67876 10.6777 6.0107 11.7543 6.0107H12.8471V3.87788C12.8471 3.87788 11.8553 3.70862 10.9071 3.70862C8.92746 3.70862 7.63359 4.9084 7.63359 7.08049V8.98987H5.43307V11.4951H7.63359V17.5512C8.08156 17.6214 8.53432 17.6566 8.98776 17.6565C9.44845 17.6565 9.90068 17.6205 10.3419 17.5512V11.4951H12.3613Z" fill="white"/>
</svg>
